Coordinates
version=1
nRows=23
nColumns=38
inDegrees=no

Units are S.I. units (second, meters, Newtons, ...)
If the header above contains a line with 'inDegrees', this indicates whether rotational values are in degrees (yes) or radians (no).

endheader
time	pelvis_tilt	pelvis_list	pelvis_rotation	pelvis_tx	pelvis_ty	pelvis_tz	hip_flexion_r	hip_adduction_r	hip_rotation_r	knee_angle_r	ankle_angle_r	subtalar_angle_r	mtp_angle_r	hip_flexion_l	hip_adduction_l	hip_rotation_l	knee_angle_l	ankle_angle_l	subtalar_angle_l	mtp_angle_l	lumbar_extension	lumbar_bending	lumbar_rotation	arm_flex_r	arm_add_r	arm_rot_r	elbow_flex_r	pro_sup_r	wrist_flex_r	wrist_dev_r	arm_flex_l	arm_add_l	arm_rot_l	elbow_flex_l	pro_sup_l	wrist_flex_l	wrist_dev_l
0.74	-0.417496	1.43155	-1.08069	1.04895	1.22016	0.946506	0.386373	-0.109952	-0.212464	1.1163	-0.341551	0	0	-0.230017	-0.0207819	-0.222729	0.0500897	-0.238762	0	0	-0.198767	0.105193	-0.164199	-0.300659	-0.292117	-0.188198	0.766702	0.376801	0	0	0.00419075	-0.270241	0.0625036	0.615441	1.5708	0	0
0.75	-0.437852	1.42974	-1.05869	1.04948	1.21205	0.946236	0.393119	-0.101351	-0.211456	1.06473	-0.341255	0	0	-0.242835	-0.0241864	-0.219632	0.043861	-0.23571	0	0	-0.200967	0.110162	-0.170098	-0.292568	-0.312901	-0.134302	0.766377	0.323503	0	0	0.0181245	-0.269748	0.0628884	0.620901	1.5708	0	0
0.76	-0.459544	1.42869	-1.03536	1.04992	1.20392	0.945826	0.39723	-0.0918476	-0.207993	1.00649	-0.341332	0	0	-0.253697	-0.0280159	-0.218015	0.0405779	-0.230607	0	0	-0.202406	0.115353	-0.172019	-0.287775	-0.31359	-0.133068	0.767076	0.324485	0	0	0.0365188	-0.268907	0.0702892	0.622254	1.5708	0	0
0.77	-0.485302	1.42936	-1.00884	1.05022	1.19569	0.945224	0.399185	-0.0815384	-0.201423	0.940325	-0.341754	0	0	-0.26251	-0.0313525	-0.216931	0.0377164	-0.225815	0	0	-0.201974	0.119948	-0.173344	-0.282765	-0.314103	-0.13218	0.767087	0.325396	0	0	0.0539415	-0.26767	0.0766563	0.623972	1.5708	0	0
0.78	-0.508974	1.42997	-0.984635	1.05045	1.18738	0.944539	0.396306	-0.071583	-0.194311	0.86587	-0.343182	0	0	-0.271282	-0.0345167	-0.21628	0.0355864	-0.219896	0	0	-0.201798	0.124048	-0.173701	-0.278336	-0.314394	-0.131945	0.767363	0.326751	0	0	0.0707261	-0.266843	0.083912	0.627071	1.5708	0	0
0.79	-0.528307	1.43072	-0.964893	1.0506	1.17895	0.943697	0.389156	-0.0629821	-0.187484	0.784633	-0.345384	0	0	-0.280063	-0.0370886	-0.216001	0.0343119	-0.213505	0	0	-0.201703	0.127253	-0.173488	-0.274718	-0.314385	-0.132448	0.768302	0.328418	0	0	0.086998	-0.266232	0.0921204	0.631329	1.5708	0	0
0.8	-0.543792	1.4328	-0.949137	1.05066	1.17035	0.942579	0.380021	-0.0565498	-0.180724	0.699502	-0.347489	0	0	-0.288097	-0.038285	-0.21554	0.0330833	-0.207554	0	0	-0.20037	0.12896	-0.172869	-0.272419	-0.313845	-0.134334	0.770068	0.330316	0	0	0.102659	-0.265659	0.101161	0.636304	1.5708	0	0
0.81	-0.562719	1.43777	-0.929193	1.05067	1.16145	0.941084	0.371782	-0.0527012	-0.174062	0.613719	-0.345071	0	0	-0.293333	-0.0382625	-0.213582	0.0321391	-0.202937	0	0	-0.195697	0.128744	-0.177692	-0.267029	-0.315172	-0.127689	0.76941	0.328712	0	0	0.111249	-0.265562	0.10087	0.647548	1.5708	0	0
0.82	-0.574066	1.44203	-0.91693	1.05058	1.15238	0.939487	0.359519	-0.0493434	-0.165204	0.524531	-0.348455	0	0	-0.300009	-0.0377257	-0.213032	0.0316022	-0.195913	0	0	-0.191555	0.127974	-0.17718	-0.268141	-0.31615	-0.12574	0.773421	0.323538	0	0	0.124674	-0.265411	0.110365	0.654543	1.5708	0	0
0.83	-0.583771	1.44673	-0.906187	1.05037	1.14309	0.937724	0.345377	-0.0464823	-0.154369	0.434039	-0.352135	0	0	-0.306524	-0.0368798	-0.213184	0.0316844	-0.188625	0	0	-0.186605	0.126376	-0.17626	-0.270747	-0.316659	-0.124689	0.778049	0.318558	0	0	0.137345	-0.26566	0.121245	0.662226	1.5708	0	0
0.84	-0.580311	1.44984	-0.908327	1.05007	1.13369	0.936013	0.325552	-0.0437066	-0.141562	0.338457	-0.362621	0	0	-0.315918	-0.0358925	-0.213276	0.0310647	-0.17942	0	0	-0.183525	0.124806	-0.167323	-0.281476	-0.301179	-0.167304	0.786835	0.352266	0	0	0.159596	-0.267425	0.157027	0.661931	1.5534	0	0
0.85	-0.577979	1.45424	-0.909663	1.04966	1.12408	0.93416	0.304739	-0.0416923	-0.125391	0.24075	-0.378095	0	0	-0.324302	-0.0341462	-0.213167	0.030153	-0.172807	0	0	-0.178587	0.121295	-0.166097	-0.284538	-0.316947	-0.127259	0.791169	0.302674	0	0	0.171065	-0.269407	0.173753	0.670805	1.54462	0	0
0.86	-0.577993	1.45957	-0.908851	1.04909	1.11428	0.93215	0.286941	-0.0409671	-0.10912	0.153	-0.386888	0	0	-0.330606	-0.0325048	-0.21504	0.0323822	-0.164281	0	0	-0.172844	0.117591	-0.163302	-0.289843	-0.315439	-0.13012	0.795954	0.299925	0	0	0.18269	-0.271017	0.191826	0.679524	1.53633	0	0
0.87	-0.580493	1.46472	-0.905591	1.04839	1.10433	0.930127	0.271096	-0.0409201	-0.0942758	0.0768696	-0.393646	0	0	-0.335831	-0.0317868	-0.218573	0.0377704	-0.153555	0	0	-0.166788	0.114229	-0.159921	-0.296212	-0.31371	-0.133796	0.80116	0.297559	0	0	0.193977	-0.271746	0.208435	0.687245	1.52839	0	0
0.88	-0.594722	1.47098	-0.892197	1.04728	1.09433	0.927882	0.262187	-0.0440936	-0.0753259	0.0219289	-0.39033	0	0	-0.33776	-0.0318347	-0.22541	0.0472505	-0.140901	0	0	-0.159184	0.110497	-0.155513	-0.302556	-0.311498	-0.137287	0.806209	0.295989	0	0	0.202909	-0.273145	0.222577	0.697111	1.52321	0	0
0.89	-0.614454	1.47621	-0.873144	1.04614	1.08432	0.925769	0.262366	-0.0468637	-0.0690307	0	-0.376507	0	0	-0.338524	-0.0333432	-0.23409	0.0602564	-0.12934	0	0	-0.152637	0.107765	-0.152159	-0.307368	-0.309198	-0.140288	0.810156	0.29507	0	0	0.209408	-0.275147	0.234187	0.709247	1.52214	0	0
0.9	-0.635107	1.4795	-0.852752	1.04506	1.07434	0.923962	0.267346	-0.0481908	-0.0744445	0	-0.363462	0	0	-0.340399	-0.0362935	-0.241339	0.0735949	-0.121797	0	0	-0.148178	0.106493	-0.149736	-0.310506	-0.306956	-0.142705	0.812747	0.294559	0	0	0.213819	-0.277467	0.243516	0.72292	1.52361	0	0
0.91	-0.643502	1.47878	-0.843403	1.04437	1.06434	0.922882	0.268075	-0.0442484	-0.0855265	0.00315134	-0.370605	0	0	-0.347884	-0.0402461	-0.242646	0.0814193	-0.127245	0	0	-0.148702	0.10793	-0.152539	-0.308603	-0.307194	-0.138962	0.812947	0.294099	0	0	0.21318	-0.276514	0.235063	0.739018	1.53694	0	0
0.92	-0.652468	1.47599	-0.833312	1.04377	1.05434	0.922066	0.278492	-0.0397037	-0.112959	0.0426835	-0.360551	0	0	-0.351864	-0.0478513	-0.255263	0.102881	-0.115397	0	0	-0.15075	0.111554	-0.150631	-0.311373	-0.307239	-0.139626	0.816492	0.289445	0	0	0.219411	-0.276895	0.246658	0.749155	1.52854	0	0
0.93	-0.663188	1.47288	-0.821515	1.04312	1.04416	0.921464	0.294139	-0.0356977	-0.144038	0.101559	-0.344421	0	0	-0.356384	-0.0558253	-0.26564	0.123063	-0.108322	0	0	-0.152385	0.115439	-0.149917	-0.313014	-0.306966	-0.139944	0.818324	0.286304	0	0	0.222961	-0.277318	0.255315	0.759702	1.52056	0	0
0.94	-0.671009	1.47048	-0.812386	1.04245	1.03368	0.920892	0.319559	-0.0359326	-0.188708	0.190281	-0.312251	0	0	-0.360349	-0.063377	-0.275638	0.14399	-0.102748	0	0	-0.153261	0.119077	-0.148586	-0.316848	-0.29321	-0.172093	0.820776	0.318582	0	0	0.225558	-0.277979	0.265744	0.769804	1.5103	0	0
0.95	-0.676947	1.46869	-0.804873	1.04167	1.02283	0.920359	0.341385	-0.0378529	-0.225385	0.273877	-0.288906	0	0	-0.364387	-0.0705832	-0.284126	0.164192	-0.101279	0	0	-0.15242	0.121315	-0.152549	-0.317097	-0.302211	-0.147297	0.820793	0.292469	0	0	0.220694	-0.280385	0.267323	0.784659	1.50048	0	0
0.96	-0.683888	1.46648	-0.796396	1.04075	1.01173	0.920017	0.350881	-0.0360251	-0.244797	0.328085	-0.279099	0	0	-0.368797	-0.0783281	-0.291783	0.18376	-0.104156	0	0	-0.15192	0.124586	-0.155758	-0.31888	-0.29983	-0.149507	0.821558	0.296951	0	0	0.215133	-0.280713	0.265819	0.797797	1.49292	0	0
